<svg id="Layer_1" data-name="Layer 1" xmlns="http://www.w3.org/2000/svg" viewBox="0 0 7.6 7.94"><defs><style>.cls-1,.cls-2{fill:#fff;}.cls-2{stroke:#000;stroke-miterlimit:10;}</style></defs><title>building</title><path class="cls-1" d="M2.88,7.7l-.07-.07A4,4,0,0,1,1.66,4V3.92A4.33,4.33,0,0,0,2.83,7.43a1.62,1.62,0,0,0-.17-1.57l0-.12s.22.09.26.15a3.48,3.48,0,0,1-.24-1.52l.14-.12a5.33,5.33,0,0,0,.35,1.88l.07.2L3,6.23a2,2,0,0,1-.1,1.38Z" transform="translate(-0.2 -0.03)"/><path class="cls-1" d="M4.61,5.52l.08-.17a.34.34,0,0,0,0-.15,1,1,0,0,1-1,.26l-.07,0,0-.07a10.65,10.65,0,0,0,0-1.28c-.22.32-.62.86-1,.87V4.8c.27,0,.73-.62,1-1l.13-.22v.26a11.38,11.38,0,0,1,0,1.49.74.74,0,0,0,.86-.39l.09-.22.06.23a.78.78,0,0,1,0,.28c.17-.13.42-.5.29-1.37L5.1,3.42l.21.37S6,5,6.13,5.35L6,5.41c-.09-.22-.41-.82-.62-1.2,0,1-.55,1.24-.57,1.25Z" transform="translate(-0.2 -0.03)"/><path class="cls-1" d="M6.13,5.7,6,5.63a2.33,2.33,0,0,0,.15-1.21V4.36A1.88,1.88,0,0,1,6.13,5.7Z" transform="translate(-0.2 -0.03)"/><path class="cls-1" d="M5.24,6.1A.35.35,0,0,1,4.94,6a1,1,0,0,1-.07-.71v0h0a1.58,1.58,0,0,1,.9,0l-.07.15a.33.33,0,0,0-.15,0A1,1,0,0,1,5.54,6,.36.36,0,0,1,5.24,6.1ZM5,5.33a.81.81,0,0,0,0,.53.22.22,0,0,0,.18.08.2.2,0,0,0,.17-.08.87.87,0,0,0,0-.59A3.42,3.42,0,0,0,5,5.33Z" transform="translate(-0.2 -0.03)"/><path class="cls-1" d="M3.7,5.31a4.16,4.16,0,0,0-1-.06V5.09a2.67,2.67,0,0,1,1.09.1.16.16,0,0,1,0,.09l-.16,0S3.69,5.31,3.7,5.31Z" transform="translate(-0.2 -0.03)"/><path class="cls-2" d="M2.86,5" transform="translate(-0.2 -0.03)"/><path class="cls-1" d="M3.22,6.11A.35.35,0,0,1,3,6a1.09,1.09,0,0,1-.14-.85l.15,0c0,.15-.05.56.1.71a.26.26,0,0,0,.25.05.44.44,0,0,0,.3-.21.69.69,0,0,0,0-.48l.15-.06a.86.86,0,0,1,0,.62.58.58,0,0,1-.41.29Z" transform="translate(-0.2 -0.03)"/><path class="cls-1" d="M6.33,7.56,6.22,7.5a1.32,1.32,0,0,1-.36-.34.34.34,0,0,1-.19.2.17.17,0,0,1-.19,0,.41.41,0,0,1-.14-.29H5.5a.33.33,0,0,0,.07.17h0c.09,0,.13-.19.15-.32a.4.4,0,0,1,0-.11h.16v.1a.61.61,0,0,0,.27.39,6.85,6.85,0,0,1,.67-1.8l0-.09L7,5.47a.87.87,0,0,0,.58.06,15.61,15.61,0,0,1-1-1.94v0s0-.12.16-.27,0,0,0,0-.12-.15-.2-.2L6.38,3l.11-.07a1.13,1.13,0,0,0,.23-.22,1,1,0,0,0-.36-.05H6.25V2.48h0c0-.07,0-.23.06-.56A3.34,3.34,0,0,0,6,.5,20.23,20.23,0,0,1,4.76,2.26l-.08.11-.06-.12a3.66,3.66,0,0,0-1-.1h-.1l0-.09A3.38,3.38,0,0,0,3.05.31a5.92,5.92,0,0,0-1.4,2.82v0l0,0A3.46,3.46,0,0,0,.83,5c0,.43-.06.77-.07,1a1.75,1.75,0,0,1-.09.66c.21,0,.48-.06.55-.24l0-.25.14.21c.07,0,.35.25.38.47A.37.37,0,0,0,2,6.6l.16,0a.56.56,0,0,1-.55.46H1.53l0-.11c0-.09-.11-.24-.24-.35-.22.31-.82.25-.85.24l-.27,0,.25-.13c.12-.07.13-.22.15-.67,0-.25,0-.59.07-1a3.64,3.64,0,0,1,.82-1.93A6.45,6.45,0,0,1,3,.11L3.08,0l0,.1A4.1,4.1,0,0,1,3.7,2a2.81,2.81,0,0,1,1,.11A18.62,18.62,0,0,0,5.9.33L6,.13,6,.25a.05.05,0,0,1,0,0,3.43,3.43,0,0,1,.41,1.65c0,.27,0,.44,0,.54.17,0,.39,0,.45.14a.13.13,0,0,1,0,.12.71.71,0,0,1-.2.25.44.44,0,0,1,.17.25.19.19,0,0,1,0,.16.59.59,0,0,0-.11.14,14,14,0,0,0,1,1.88l0,0c.07,0,.09.06.09.1a.11.11,0,0,1-.08.11,1.08,1.08,0,0,1-.75,0,5.82,5.82,0,0,0-.63,1.79Z" transform="translate(-0.2 -0.03)"/><path class="cls-1" d="M5,6.67c-.84,0-1.94-.13-2-.13l0-.17a10.69,10.69,0,0,0,2.74.06c.13,0,.22-.12.23-.18a.23.23,0,0,0-.12-.16l0,0L6,5.31l.16,0L6,6a.36.36,0,0,1,.13.29c0,.13-.12.24-.33.32A2.8,2.8,0,0,1,5,6.67Z" transform="translate(-0.2 -0.03)"/><path class="cls-1" d="M4.42,8a.67.67,0,0,1-.6-.61A8,8,0,0,1,3,7l.07-.15a6.42,6.42,0,0,0,.75.31.61.61,0,0,1,.53-.48.6.6,0,0,1,.49.11A.71.71,0,0,1,5,7.28a.54.54,0,0,1-.45.64A.55.55,0,0,1,4.42,8ZM4,7.27a.57.57,0,0,0,.38.52.37.37,0,0,0,.18,0c.37-.14.37-.29.36-.49A.53.53,0,0,0,4.73,7a.46.46,0,0,0-.36-.08A.45.45,0,0,0,4,7.27Z" transform="translate(-0.2 -0.03)"/><path class="cls-1" d="M4.9,7.37V7.2a2.38,2.38,0,0,0,.43-.13.6.6,0,0,0-.06-.42l.15-.07s.18.45,0,.62v0h0A2.94,2.94,0,0,1,4.9,7.37Z" transform="translate(-0.2 -0.03)"/></svg>